<mxfile host="app.diagrams.net" modified="2021-09-29T07:35:41.535Z" agent="5.0 (Windows NT 10.0; Win64; x64) AppleWebKit/537.36 (KHTML, like Gecko) Chrome/94.0.4606.54 Safari/537.36" etag="iD-vKTae7hrJ0m2zN_lG" version="15.3.1" type="github">
  <diagram id="fiViFHrDjd_YTAFAnZx1" name="第 1 页">
    <mxGraphModel dx="2249" dy="1941" grid="0" gridSize="10" guides="0" tooltips="1" connect="1" arrows="1" fold="1" page="1" pageScale="1" pageWidth="827" pageHeight="1169" math="0" shadow="1">
      <root>
        <mxCell id="0" />
        <mxCell id="1" parent="0" />
        <mxCell id="UVusGNRqB6WY-s-b3lsW-1" value="" style="rounded=0;whiteSpace=wrap;html=1;fillColor=#f8cecc;strokeColor=#b85450;" vertex="1" parent="1">
          <mxGeometry x="10" y="130" width="240" height="200" as="geometry" />
        </mxCell>
        <mxCell id="UVusGNRqB6WY-s-b3lsW-2" value="新生代" style="text;html=1;strokeColor=none;fillColor=none;align=center;verticalAlign=middle;whiteSpace=wrap;rounded=0;" vertex="1" parent="1">
          <mxGeometry x="110" y="110" width="40" height="20" as="geometry" />
        </mxCell>
        <mxCell id="UVusGNRqB6WY-s-b3lsW-3" value="Eden&lt;br&gt;800MB内存&lt;br&gt;&lt;br&gt;&lt;br&gt;&lt;br&gt;&lt;br&gt;" style="rounded=0;whiteSpace=wrap;html=1;fillColor=#dae8fc;strokeColor=#6c8ebf;" vertex="1" parent="1">
          <mxGeometry x="20" y="140" width="220" height="110" as="geometry" />
        </mxCell>
        <mxCell id="UVusGNRqB6WY-s-b3lsW-25" style="edgeStyle=orthogonalEdgeStyle;rounded=0;orthogonalLoop=1;jettySize=auto;html=1;exitX=1;exitY=0.5;exitDx=0;exitDy=0;entryX=0;entryY=0.5;entryDx=0;entryDy=0;" edge="1" parent="1" source="UVusGNRqB6WY-s-b3lsW-4" target="UVusGNRqB6WY-s-b3lsW-5">
          <mxGeometry relative="1" as="geometry" />
        </mxCell>
        <mxCell id="UVusGNRqB6WY-s-b3lsW-4" value="Survivor1&lt;br&gt;100MB内存&lt;br&gt;" style="rounded=0;whiteSpace=wrap;html=1;fillColor=#dae8fc;strokeColor=#6c8ebf;" vertex="1" parent="1">
          <mxGeometry x="20" y="260" width="100" height="60" as="geometry" />
        </mxCell>
        <mxCell id="UVusGNRqB6WY-s-b3lsW-5" value="&lt;span&gt;Survivor2&lt;br&gt;&lt;/span&gt;100MB内存&lt;br&gt;" style="rounded=0;whiteSpace=wrap;html=1;fillColor=#dae8fc;strokeColor=#6c8ebf;" vertex="1" parent="1">
          <mxGeometry x="140" y="260" width="100" height="60" as="geometry" />
        </mxCell>
        <mxCell id="UVusGNRqB6WY-s-b3lsW-13" style="edgeStyle=orthogonalEdgeStyle;rounded=0;orthogonalLoop=1;jettySize=auto;html=1;exitX=1;exitY=0.5;exitDx=0;exitDy=0;entryX=0;entryY=0.5;entryDx=0;entryDy=0;" edge="1" parent="1" source="UVusGNRqB6WY-s-b3lsW-6" target="UVusGNRqB6WY-s-b3lsW-12">
          <mxGeometry relative="1" as="geometry" />
        </mxCell>
        <mxCell id="UVusGNRqB6WY-s-b3lsW-6" value="大量存活对象" style="rounded=0;whiteSpace=wrap;html=1;fillColor=#ffe6cc;strokeColor=#d79b00;" vertex="1" parent="1">
          <mxGeometry x="85" y="190" width="90" height="50" as="geometry" />
        </mxCell>
        <mxCell id="UVusGNRqB6WY-s-b3lsW-7" value="" style="rounded=0;whiteSpace=wrap;html=1;fillColor=#f8cecc;strokeColor=#b85450;" vertex="1" parent="1">
          <mxGeometry x="484" y="50" width="200" height="90" as="geometry" />
        </mxCell>
        <mxCell id="UVusGNRqB6WY-s-b3lsW-8" value="老年代" style="text;html=1;strokeColor=none;fillColor=none;align=center;verticalAlign=middle;whiteSpace=wrap;rounded=0;" vertex="1" parent="1">
          <mxGeometry x="564" y="30" width="40" height="20" as="geometry" />
        </mxCell>
        <mxCell id="UVusGNRqB6WY-s-b3lsW-18" style="edgeStyle=orthogonalEdgeStyle;rounded=0;orthogonalLoop=1;jettySize=auto;html=1;exitX=0.5;exitY=0;exitDx=0;exitDy=0;entryX=1;entryY=0.5;entryDx=0;entryDy=0;" edge="1" parent="1" source="UVusGNRqB6WY-s-b3lsW-10" target="UVusGNRqB6WY-s-b3lsW-17">
          <mxGeometry relative="1" as="geometry" />
        </mxCell>
        <mxCell id="UVusGNRqB6WY-s-b3lsW-10" value="Minor GC" style="ellipse;whiteSpace=wrap;html=1;aspect=fixed;gradientColor=#d5739d;fillColor=#e6d0de;strokeColor=#996185;" vertex="1" parent="1">
          <mxGeometry x="309" y="50" width="80" height="80" as="geometry" />
        </mxCell>
        <mxCell id="UVusGNRqB6WY-s-b3lsW-14" style="edgeStyle=orthogonalEdgeStyle;rounded=0;orthogonalLoop=1;jettySize=auto;html=1;entryX=0.5;entryY=1;entryDx=0;entryDy=0;" edge="1" parent="1" source="UVusGNRqB6WY-s-b3lsW-12" target="UVusGNRqB6WY-s-b3lsW-10">
          <mxGeometry relative="1" as="geometry" />
        </mxCell>
        <mxCell id="UVusGNRqB6WY-s-b3lsW-27" style="edgeStyle=orthogonalEdgeStyle;rounded=0;orthogonalLoop=1;jettySize=auto;html=1;entryX=0.5;entryY=0;entryDx=0;entryDy=0;" edge="1" parent="1" source="UVusGNRqB6WY-s-b3lsW-12" target="UVusGNRqB6WY-s-b3lsW-26">
          <mxGeometry relative="1" as="geometry" />
        </mxCell>
        <mxCell id="UVusGNRqB6WY-s-b3lsW-12" value="老年代剩余&amp;gt; 新生代所有对象总大小" style="rhombus;whiteSpace=wrap;html=1;fillColor=#fff2cc;strokeColor=#d6b656;" vertex="1" parent="1">
          <mxGeometry x="284" y="181.25" width="130" height="68.75" as="geometry" />
        </mxCell>
        <mxCell id="UVusGNRqB6WY-s-b3lsW-15" value="true" style="text;html=1;strokeColor=none;fillColor=none;align=center;verticalAlign=middle;whiteSpace=wrap;rounded=0;" vertex="1" parent="1">
          <mxGeometry x="309" y="150" width="40" height="20" as="geometry" />
        </mxCell>
        <mxCell id="UVusGNRqB6WY-s-b3lsW-21" style="edgeStyle=orthogonalEdgeStyle;rounded=0;orthogonalLoop=1;jettySize=auto;html=1;exitX=0;exitY=0.5;exitDx=0;exitDy=0;entryX=0;entryY=0.5;entryDx=0;entryDy=0;" edge="1" parent="1" source="UVusGNRqB6WY-s-b3lsW-17" target="UVusGNRqB6WY-s-b3lsW-4">
          <mxGeometry relative="1" as="geometry">
            <Array as="points">
              <mxPoint x="-40" y="30" />
              <mxPoint x="-40" y="290" />
            </Array>
          </mxGeometry>
        </mxCell>
        <mxCell id="UVusGNRqB6WY-s-b3lsW-62" value="false" style="edgeLabel;html=1;align=center;verticalAlign=middle;resizable=0;points=[];" vertex="1" connectable="0" parent="UVusGNRqB6WY-s-b3lsW-21">
          <mxGeometry x="-0.2044" y="2" relative="1" as="geometry">
            <mxPoint as="offset" />
          </mxGeometry>
        </mxCell>
        <mxCell id="UVusGNRqB6WY-s-b3lsW-55" style="edgeStyle=orthogonalEdgeStyle;rounded=0;orthogonalLoop=1;jettySize=auto;html=1;exitX=0.5;exitY=0;exitDx=0;exitDy=0;entryX=0;entryY=0.5;entryDx=0;entryDy=0;" edge="1" parent="1" source="UVusGNRqB6WY-s-b3lsW-17" target="UVusGNRqB6WY-s-b3lsW-48">
          <mxGeometry relative="1" as="geometry" />
        </mxCell>
        <mxCell id="UVusGNRqB6WY-s-b3lsW-56" value="true" style="edgeLabel;html=1;align=center;verticalAlign=middle;resizable=0;points=[];" vertex="1" connectable="0" parent="UVusGNRqB6WY-s-b3lsW-55">
          <mxGeometry x="0.0223" y="-1" relative="1" as="geometry">
            <mxPoint as="offset" />
          </mxGeometry>
        </mxCell>
        <mxCell id="UVusGNRqB6WY-s-b3lsW-17" value="存活对象是否大于Survivor区内存" style="rhombus;whiteSpace=wrap;html=1;fillColor=#fff2cc;strokeColor=#d6b656;" vertex="1" parent="1">
          <mxGeometry x="90" y="-10" width="80" height="80" as="geometry" />
        </mxCell>
        <mxCell id="UVusGNRqB6WY-s-b3lsW-30" style="edgeStyle=orthogonalEdgeStyle;rounded=0;orthogonalLoop=1;jettySize=auto;html=1;exitX=0.5;exitY=1;exitDx=0;exitDy=0;entryX=0.5;entryY=0;entryDx=0;entryDy=0;" edge="1" parent="1" source="UVusGNRqB6WY-s-b3lsW-26" target="UVusGNRqB6WY-s-b3lsW-29">
          <mxGeometry relative="1" as="geometry" />
        </mxCell>
        <mxCell id="UVusGNRqB6WY-s-b3lsW-36" style="edgeStyle=orthogonalEdgeStyle;rounded=0;orthogonalLoop=1;jettySize=auto;html=1;exitX=1;exitY=0.5;exitDx=0;exitDy=0;entryX=0;entryY=0.5;entryDx=0;entryDy=0;" edge="1" parent="1" source="UVusGNRqB6WY-s-b3lsW-26" target="UVusGNRqB6WY-s-b3lsW-35">
          <mxGeometry relative="1" as="geometry" />
        </mxCell>
        <mxCell id="UVusGNRqB6WY-s-b3lsW-26" value="是否设置了&lt;br&gt;-XX:HandlePromotionFailure&lt;br&gt;" style="rhombus;whiteSpace=wrap;html=1;fillColor=#fff2cc;strokeColor=#d6b656;" vertex="1" parent="1">
          <mxGeometry x="264" y="300" width="170" height="120" as="geometry" />
        </mxCell>
        <mxCell id="UVusGNRqB6WY-s-b3lsW-28" value="false" style="text;html=1;strokeColor=none;fillColor=none;align=center;verticalAlign=middle;whiteSpace=wrap;rounded=0;" vertex="1" parent="1">
          <mxGeometry x="309" y="260" width="40" height="20" as="geometry" />
        </mxCell>
        <mxCell id="UVusGNRqB6WY-s-b3lsW-44" style="edgeStyle=orthogonalEdgeStyle;rounded=0;orthogonalLoop=1;jettySize=auto;html=1;exitX=1;exitY=0;exitDx=0;exitDy=0;entryX=0.5;entryY=1;entryDx=0;entryDy=0;" edge="1" parent="1" source="UVusGNRqB6WY-s-b3lsW-29" target="UVusGNRqB6WY-s-b3lsW-35">
          <mxGeometry relative="1" as="geometry" />
        </mxCell>
        <mxCell id="UVusGNRqB6WY-s-b3lsW-45" value="false" style="edgeLabel;html=1;align=center;verticalAlign=middle;resizable=0;points=[];" vertex="1" connectable="0" parent="UVusGNRqB6WY-s-b3lsW-44">
          <mxGeometry x="-0.4805" relative="1" as="geometry">
            <mxPoint as="offset" />
          </mxGeometry>
        </mxCell>
        <mxCell id="UVusGNRqB6WY-s-b3lsW-64" style="edgeStyle=orthogonalEdgeStyle;rounded=0;orthogonalLoop=1;jettySize=auto;html=1;exitX=1;exitY=0.5;exitDx=0;exitDy=0;" edge="1" parent="1" source="UVusGNRqB6WY-s-b3lsW-29" target="UVusGNRqB6WY-s-b3lsW-10">
          <mxGeometry relative="1" as="geometry">
            <Array as="points">
              <mxPoint x="583" y="510" />
              <mxPoint x="583" y="164" />
              <mxPoint x="349" y="164" />
            </Array>
          </mxGeometry>
        </mxCell>
        <mxCell id="UVusGNRqB6WY-s-b3lsW-65" value="进行Minor GC" style="edgeLabel;html=1;align=center;verticalAlign=middle;resizable=0;points=[];" vertex="1" connectable="0" parent="UVusGNRqB6WY-s-b3lsW-64">
          <mxGeometry x="-0.3811" y="-1" relative="1" as="geometry">
            <mxPoint y="1" as="offset" />
          </mxGeometry>
        </mxCell>
        <mxCell id="UVusGNRqB6WY-s-b3lsW-29" value="老年代剩余内存是否大于之前每次Minor GC后进入老年代的平均大小" style="rhombus;whiteSpace=wrap;html=1;fillColor=#fff2cc;strokeColor=#d6b656;" vertex="1" parent="1">
          <mxGeometry x="268.5" y="460" width="161" height="100" as="geometry" />
        </mxCell>
        <mxCell id="UVusGNRqB6WY-s-b3lsW-31" value="true" style="text;html=1;strokeColor=none;fillColor=none;align=center;verticalAlign=middle;whiteSpace=wrap;rounded=0;" vertex="1" parent="1">
          <mxGeometry x="309" y="430" width="40" height="20" as="geometry" />
        </mxCell>
        <mxCell id="UVusGNRqB6WY-s-b3lsW-34" value="false" style="text;html=1;strokeColor=none;fillColor=none;align=center;verticalAlign=middle;whiteSpace=wrap;rounded=0;" vertex="1" parent="1">
          <mxGeometry x="444" y="340" width="40" height="20" as="geometry" />
        </mxCell>
        <mxCell id="UVusGNRqB6WY-s-b3lsW-37" style="edgeStyle=orthogonalEdgeStyle;rounded=0;orthogonalLoop=1;jettySize=auto;html=1;entryX=1;entryY=0.5;entryDx=0;entryDy=0;" edge="1" parent="1" source="UVusGNRqB6WY-s-b3lsW-35" target="UVusGNRqB6WY-s-b3lsW-10">
          <mxGeometry relative="1" as="geometry">
            <Array as="points">
              <mxPoint x="524" y="290" />
              <mxPoint x="460" y="290" />
              <mxPoint x="460" y="90" />
            </Array>
          </mxGeometry>
        </mxCell>
        <mxCell id="UVusGNRqB6WY-s-b3lsW-35" value="Full GC" style="ellipse;whiteSpace=wrap;html=1;aspect=fixed;gradientColor=#ea6b66;fillColor=#f8cecc;strokeColor=#b85450;" vertex="1" parent="1">
          <mxGeometry x="484" y="320" width="80" height="80" as="geometry" />
        </mxCell>
        <mxCell id="UVusGNRqB6WY-s-b3lsW-39" value="尽量腾出一些空间来，在执行Minor GC" style="text;html=1;strokeColor=none;fillColor=none;align=center;verticalAlign=middle;whiteSpace=wrap;rounded=0;" vertex="1" parent="1">
          <mxGeometry x="460" y="260" width="90" as="geometry" />
        </mxCell>
        <mxCell id="UVusGNRqB6WY-s-b3lsW-46" value="Minor GC 转移过来的对象" style="rounded=0;whiteSpace=wrap;html=1;fillColor=#ffe6cc;strokeColor=#d79b00;" vertex="1" parent="1">
          <mxGeometry x="526" y="70" width="116" height="45" as="geometry" />
        </mxCell>
        <mxCell id="UVusGNRqB6WY-s-b3lsW-58" style="edgeStyle=orthogonalEdgeStyle;rounded=0;orthogonalLoop=1;jettySize=auto;html=1;exitX=1;exitY=0.5;exitDx=0;exitDy=0;" edge="1" parent="1" source="UVusGNRqB6WY-s-b3lsW-48" target="UVusGNRqB6WY-s-b3lsW-7">
          <mxGeometry relative="1" as="geometry" />
        </mxCell>
        <mxCell id="UVusGNRqB6WY-s-b3lsW-59" value="false" style="edgeLabel;html=1;align=center;verticalAlign=middle;resizable=0;points=[];" vertex="1" connectable="0" parent="UVusGNRqB6WY-s-b3lsW-58">
          <mxGeometry x="-0.2477" relative="1" as="geometry">
            <mxPoint as="offset" />
          </mxGeometry>
        </mxCell>
        <mxCell id="UVusGNRqB6WY-s-b3lsW-61" value="" style="edgeStyle=orthogonalEdgeStyle;rounded=0;orthogonalLoop=1;jettySize=auto;html=1;" edge="1" parent="1" source="UVusGNRqB6WY-s-b3lsW-48" target="UVusGNRqB6WY-s-b3lsW-60">
          <mxGeometry relative="1" as="geometry" />
        </mxCell>
        <mxCell id="UVusGNRqB6WY-s-b3lsW-48" value="存活对象是否大于老年大剩余内存" style="rhombus;whiteSpace=wrap;html=1;fillColor=#fff2cc;strokeColor=#d6b656;" vertex="1" parent="1">
          <mxGeometry x="339" y="-90" width="121" height="90" as="geometry" />
        </mxCell>
        <mxCell id="UVusGNRqB6WY-s-b3lsW-60" value="OOM内存溢出" style="ellipse;whiteSpace=wrap;html=1;fillColor=#d80073;strokeColor=#A50040;fontColor=#ffffff;" vertex="1" parent="1">
          <mxGeometry x="339.5" y="-190" width="120" height="60" as="geometry" />
        </mxCell>
      </root>
    </mxGraphModel>
  </diagram>
</mxfile>
